<?xml version="1.0" encoding="UTF-8"?>
<svg version="1.1" xmlns="http://www.w3.org/2000/svg" width="2000" height="2000">
<path d="M0 0 C660 0 1320 0 2000 0 C2000 660 2000 1320 2000 2000 C1340 2000 680 2000 0 2000 C0 1340 0 680 0 0 Z " fill="#000000" transform="translate(0,0)"/>
<path d="M0 0 C150.02381729 0 150.02381729 0 185 34 C191.82788445 41.23858427 197.07484306 49.38368149 202 58 C202.47308594 58.81984375 202.94617187 59.6396875 203.43359375 60.484375 C214.40505715 80.85506717 216.57217523 107.33021513 211.03515625 129.6328125 C202.89916084 156.09782398 187.71513706 177.521733 163 191 C153.03649635 196 153.03649635 196 150 196 C156.36095293 205.41161403 162.89826349 214.66353473 169.66455078 223.78833008 C173.6503973 229.16364335 177.59265959 234.56737879 181.5 240 C185.95995794 246.19672282 190.4625989 252.35976368 195 258.5 C202.27959514 268.3539512 209.44830513 278.28574596 216.60449219 288.22949219 C218.21465499 290.46610131 219.82582034 292.70198369 221.4375 294.9375 C221.96327637 295.66735107 222.48905273 296.39720215 223.03076172 297.14916992 C225.94834184 301.19015556 228.89010521 305.21165824 231.859375 309.21484375 C232.49818604 310.0766626 233.13699707 310.93848145 233.79516602 311.82641602 C235.02977827 313.48918435 236.26712223 315.14992887 237.50756836 316.80834961 C238.06581299 317.55995361 238.62405762 318.31155762 239.19921875 319.0859375 C239.69252686 319.7464209 240.18583496 320.4069043 240.6940918 321.08740234 C241.99646323 322.99482014 242.98792745 324.92769541 244 327 C235.81139967 327.27910109 227.62481121 327.49176285 219.43261814 327.62174606 C215.62759542 327.6841636 211.82584423 327.7686595 208.02270508 327.90527344 C204.34599672 328.03650614 200.67241432 328.1075692 196.99354362 328.13852692 C195.59656473 328.16055744 194.19974137 328.2035896 192.80410957 328.26876068 C188.29067597 328.47097246 184.31671356 328.38648829 180 327 C176.14088282 323.45504145 173.62955375 319.498296 171 315 C169.74299292 313.19121517 168.47326588 311.39111013 167.18359375 309.60546875 C165.93264481 307.80103765 164.68400846 305.99500146 163.4375 304.1875 C162.04042513 302.17053098 160.64328794 300.15360512 159.24609375 298.13671875 C158.54210449 297.11884277 157.83811523 296.1009668 157.11279297 295.05224609 C153.75076876 290.19529824 150.37496673 285.34795885 147 280.5 C145.66918958 278.58729611 144.3384606 276.67453556 143.0078125 274.76171875 C142.34813477 273.81345215 141.68845703 272.86518555 141.00878906 271.88818359 C138.98190891 268.97398911 136.95571805 266.05931645 134.9296875 263.14453125 C128.07523833 253.28466976 121.21058848 243.43225096 114.31713867 233.59960938 C111.06984985 228.96527828 107.83299796 224.32390011 104.60546875 219.67578125 C103.50235352 218.08733398 103.50235352 218.08733398 102.37695312 216.46679688 C100.93854326 214.39451147 99.50101571 212.32161329 98.06445312 210.24804688 C97.41798828 209.31669922 96.77152344 208.38535156 96.10546875 207.42578125 C95.52949951 206.59473877 94.95353027 205.76369629 94.36010742 204.9074707 C93.13925108 203.08418058 93.13925108 203.08418058 92 202 C79.13 201.67 66.26 201.34 53 201 C53 242.58 53 284.16 53 327 C35.51 327 18.02 327 0 327 C0 219.09 0 111.18 0 0 Z " fill="#FCFCFC" transform="translate(957,860)"/>
<path d="M0 0 C64.68 0 129.36 0 196 0 C196 16.83 196 33.66 196 51 C195 52 195 52 192.65928555 52.12304783 C191.61305051 52.12212604 190.56681547 52.12120424 189.48887634 52.12025452 C188.2926918 52.12162918 187.09650726 52.12300385 185.86407471 52.12442017 C184.52648901 52.12088057 183.18890356 52.11724575 181.85131836 52.11352539 C180.45217389 52.11324352 179.05302927 52.11340125 177.65388489 52.1139679 C173.84413541 52.11425588 170.03441714 52.10835898 166.22467494 52.10139394 C162.24748691 52.09516059 158.27029824 52.09455662 154.29310608 52.09336853 C146.75661461 52.09025516 139.22013757 52.08204169 131.68365246 52.07201904 C121.50320975 52.05877289 111.32276311 52.05335804 101.14231396 52.04751682 C85.09486515 52.0381018 69.04744681 52.01818293 53 52 C53 79.06 53 106.12 53 134 C93.59 134 134.18 134 176 134 C176 151.16 176 168.32 176 186 C135.41 186 94.82 186 53 186 C53 215.37 53 244.74 53 275 C100.19 275 147.38 275 196 275 C196 292.16 196 309.32 196 327 C131.32 327 66.64 327 0 327 C0 219.09 0 111.18 0 0 Z " fill="#FCFCFC" transform="translate(1239,860)"/>
<path d="M0 0 C0.73798828 0.14002441 1.47597656 0.28004883 2.23632812 0.42431641 C33.55796974 6.47137753 60.74806986 21.57959987 83.9765625 43.1875 C86.07089533 45.14980443 86.07089533 45.14980443 89 47 C88.41138943 51.11029756 86.08681105 53.99745801 83.6875 57.25 C83.02959473 58.15613037 83.02959473 58.15613037 82.35839844 59.08056641 C77.46360403 65.79504437 72.46617247 72.43457181 67.45898438 79.06542969 C64.96556541 82.3716298 62.4830412 85.68600262 60 89 C56.62724001 87.40226108 54.37919598 85.60336744 51.6875 83 C28.0434624 61.43303745 -2.68343009 50.46067768 -34.50585938 51.83154297 C-40.20652969 52.21657258 -45.52683845 53.41886444 -51 55 C-52.88525391 55.49306641 -52.88525391 55.49306641 -54.80859375 55.99609375 C-84.4656501 64.12974725 -109.70835201 85.52205798 -124.87011719 111.97119141 C-138.4870651 136.4216748 -144.06926243 166.93343283 -137.16796875 194.44140625 C-131.41886669 211.95790117 -124.17130603 227.96692631 -112 242 C-111.33613281 242.80824219 -110.67226562 243.61648438 -109.98828125 244.44921875 C-92.68356761 264.82463944 -65.10124803 280.18151499 -38.42773438 282.8190918 C-4.51549184 285.34614044 24.83869492 274.796392 50.53564453 252.67822266 C53.40086366 250.16567459 56.21585603 247.60188624 59 245 C62.78294164 248.47140527 65.53911104 252.42513719 68.4375 256.625 C71.79195062 261.44560642 75.16307226 266.24754545 78.640625 270.98046875 C79.23302979 271.7885498 79.82543457 272.59663086 80.43579102 273.42919922 C81.5851373 274.99295091 82.73912653 276.55330287 83.89819336 278.10986328 C84.42034424 278.82255371 84.94249512 279.53524414 85.48046875 280.26953125 C86.17499146 281.20696167 86.17499146 281.20696167 86.88354492 282.16333008 C88.08521291 284.14018297 88.68078036 285.71062906 89 288 C73.39676883 311.3091214 36.60838095 327.70121063 10.3059082 333.14599609 C5.21306755 334.1537119 0.11551555 335.11442972 -5 336 C-6.74796875 336.30550781 -6.74796875 336.30550781 -8.53125 336.6171875 C-38.91395622 339.97023391 -69.68563662 333.28902542 -97 320 C-97.61649414 319.70399902 -98.23298828 319.40799805 -98.86816406 319.10302734 C-113.9103577 311.78744657 -127.58708046 302.14835102 -139.52880859 290.43603516 C-141.08097444 288.92096056 -142.65841536 287.43535186 -144.23828125 285.94921875 C-161.03541519 269.92524701 -172.84543602 250.20031808 -182 229 C-182.47308594 227.90816406 -182.94617187 226.81632812 -183.43359375 225.69140625 C-195.74850486 194.34784745 -196.88104104 156.30434451 -188 124 C-187.77538086 123.17661133 -187.55076172 122.35322266 -187.31933594 121.50488281 C-182.04189509 102.84563416 -173.16336249 85.78473319 -162 70 C-161.58057129 69.40413086 -161.16114258 68.80826172 -160.72900391 68.19433594 C-137.07976938 35.15427983 -99.17144754 8.53407259 -58.7734375 1.15234375 C-56.60926856 0.8284382 -54.44016534 0.5338406 -52.265625 0.2890625 C-49.97079598 0.12307239 -49.97079598 0.12307239 -48 -1 C-32.39929174 -3.1931205 -15.42418902 -3.15494775 0 0 Z " fill="#FDFDFD" transform="translate(1670,856)"/>
<path d="M0 0 C1.32 0 2.64 0 4 0 C12.59254587 18.19330973 21.15948672 36.39522402 29.49951172 54.70605469 C32.51559632 61.32711122 35.53893888 67.94485504 38.5625 74.5625 C38.89880432 75.29866547 39.23510864 76.03483093 39.581604 76.79330444 C47.24745432 93.57040031 54.97986379 110.31659511 62.71777344 127.06054688 C66.10683735 134.39465059 69.49177938 141.73065663 72.87701416 149.06652832 C74.75117218 153.12776428 76.6255998 157.18887581 78.5 161.25 C79.25000129 162.8749994 80.00000129 164.4999994 80.75 166.125 C81.12125 166.929375 81.4925 167.73375 81.875 168.5625 C85.25 175.875 85.25 175.875 86.37480164 178.31207275 C87.12546027 179.9384981 87.87612149 181.56492225 88.62678528 183.19134521 C90.49172927 187.23202772 92.35662963 191.27273034 94.22143555 195.31347656 C97.7161869 202.88594113 101.21137748 210.45820209 104.70803833 218.02978516 C106.34841049 221.58187404 107.98854505 225.13407262 109.62866211 228.6862793 C110.40588747 230.36943944 111.18322751 232.05254663 111.96069336 233.7355957 C114.01605682 238.18505948 116.06857381 242.63581217 118.11773682 247.08813477 C118.94719112 248.88556309 119.78271729 250.6801859 120.61865234 252.47460938 C121.30822021 253.96444336 121.30822021 253.96444336 122.01171875 255.484375 C122.40190186 256.32194336 122.79208496 257.15951172 123.1940918 258.02246094 C124 260 124 260 124 262 C109.48 262 94.96 262 80 262 C73.73191505 249.46383011 67.7998058 236.75957276 62 224 C22.4 224 -17.2 224 -58 224 C-62.29 233.24 -66.58 242.48 -71 252 C-72.65 255.3 -74.3 258.6 -76 262 C-90.52 262 -105.04 262 -120 262 C-118.4092676 257.22780279 -116.61920888 252.78964263 -114.5 248.25390625 C-113.97877563 247.12812416 -113.97877563 247.12812416 -113.44702148 245.979599 C-112.3009366 243.50586575 -111.15043685 241.03421192 -110 238.5625 C-109.18846418 236.81265667 -108.37727215 235.06265386 -107.56640625 233.3125 C-105.88154058 229.67662632 -104.1951973 226.0414435 -102.5078125 222.40673828 C-99.02926355 214.91088705 -95.56867205 207.40676392 -92.10806274 199.90261841 C-90.24329945 195.85924213 -88.37755333 191.81631952 -86.51171875 187.7734375 C-85.95565193 186.56848381 -85.95565193 186.56848381 -85.38835144 185.33918762 C-83.11012931 180.40312722 -80.82983822 175.46802794 -78.54804993 170.53361511 C-76.63554615 166.39771216 -74.72381559 162.26145217 -72.8125 158.125 C-72.43741302 157.31328339 -72.06232605 156.50156677 -71.6758728 155.66525269 C-66.19976648 143.8103364 -60.7808737 131.93058556 -55.39431763 120.03475952 C-50.13954445 108.4367658 -44.76013298 96.90028741 -39.34082031 85.37841797 C-34.34746969 74.76025017 -29.43335682 64.10766067 -24.56494141 53.43164062 C-21.64850158 47.03640221 -18.72752048 40.64323854 -15.80636597 34.25015259 C-14.78508139 32.01430205 -13.7646681 29.77805562 -12.74438477 27.54174805 C-8.54304486 18.33904652 -4.29323964 9.16018799 0 0 Z " fill="#FDFDFD" transform="translate(211,925)"/>
<path d="M0 0 C50.49 0 100.98 0 153 0 C153 13.2 153 26.4 153 40 C116.04 40 79.08 40 41 40 C41 61.78 41 83.56 41 106 C73.01 106 105.02 106 138 106 C138 119.2 138 132.4 138 146 C105.99 146 73.98 146 41 146 C41 169.1 41 192.2 41 216 C78.29 216 115.58 216 154 216 C154 229.53 154 243.06 154 257 C103.18 257 52.36 257 0 257 C0 172.19 0 87.38 0 0 Z " fill="#FDFDFD" transform="translate(752,930)"/>
<path d="M0 0 C50.49 0 100.98 0 153 0 C153 13.2 153 26.4 153 40 C116.04 40 79.08 40 41 40 C41 62.44 41 84.88 41 108 C73.01 108 105.02 108 138 108 C138 121.53 138 135.06 138 149 C105.99 149 73.98 149 41 149 C41 184.64 41 220.28 41 257 C27.47 257 13.94 257 0 257 C0 172.19 0 87.38 0 0 Z " fill="#FEFEFE" transform="translate(367,930)"/>
<path d="M0 0 C59.07 0 118.14 0 179 0 C179 13.53 179 27.06 179 41 C156.23 41 133.46 41 110 41 C110 112.28 110 183.56 110 257 C96.47 257 82.94 257 69 257 C69 185.72 69 114.44 69 41 C46.23 41 23.46 41 0 41 C0 27.47 0 13.94 0 0 Z " fill="#FDFDFD" transform="translate(538,930)"/>
<path d="M0 0 C9.19875 -0.04125 18.3975 -0.0825 27.875 -0.125 C30.75976074 -0.14320801 33.64452148 -0.16141602 36.61669922 -0.18017578 C38.92936009 -0.18602262 41.24202304 -0.19111772 43.5546875 -0.1953125 C44.73426025 -0.20554443 45.91383301 -0.21577637 47.12915039 -0.22631836 C65.04080647 -0.23006322 79.69700119 5.00882468 93 17 C103.7768937 28.14626304 106.51243427 41.25911778 106.2734375 56.125 C105.71759488 70.34576558 98.69094196 82.29814035 88.50390625 91.93359375 C76.01164397 102.24312065 62.31547885 105.65127277 46.38671875 105.390625 C45.2006604 105.38659668 44.01460205 105.38256836 42.79260254 105.37841797 C38.42407433 105.35772133 34.05576918 105.30187886 29.6875 105.25 C14.9921875 105.12625 14.9921875 105.12625 0 105 C0 70.35 0 35.7 0 0 Z " fill="#000000" transform="translate(1010,912)"/>
<path d="M0 0 C9.89669733 7.80739456 15.90129874 19.59249857 17.578125 31.9921875 C18.0914381 46.03985593 13.28858941 58.87182456 3.84375 69.203125 C-1.78091054 74.62244079 -7.54026708 78.05307754 -14.8671875 80.69921875 C-15.52074219 80.94414063 -16.17429687 81.1890625 -16.84765625 81.44140625 C-27.66982612 84.81035465 -39.65943124 83.16019192 -49.8671875 78.69921875 C-59.79420755 73.08224942 -66.91428699 65.93278526 -71.8671875 55.69921875 C-72.1765625 55.07789063 -72.4859375 54.4565625 -72.8046875 53.81640625 C-77.18640132 44.42100065 -77.58911435 31.72613371 -74.2421875 21.94921875 C-68.4056634 8.02347703 -60.47701941 -0.66727376 -46.8671875 -7.30078125 C-30.26921554 -14.03033148 -14.21394267 -9.90218182 0 0 Z " fill="#D40000" transform="translate(1887.8671875,817.30078125)"/>
<path d="M0 0 C0.66 0 1.32 0 2 0 C2.76157209 1.69238243 3.52314376 3.38476506 4.28471375 5.07714844 C4.97905312 6.62012022 5.67339951 8.16308884 6.36775208 9.70605469 C8.34925147 14.10930263 10.33061948 18.51260962 12.31176758 22.91601562 C16.11848527 31.37669272 19.92585183 39.83707284 23.73803711 48.29528809 C25.33809635 51.84550966 26.93753057 55.39601266 28.53692627 58.9465332 C29.29259758 60.62359356 30.04856957 62.30051846 30.80487061 63.97729492 C33.21201371 69.31429354 35.61135111 74.65469766 38 80 C38.3425885 80.76554199 38.685177 81.53108398 39.03814697 82.31982422 C40.03629117 84.55506425 41.02885629 86.79269114 42.01953125 89.03125 C42.32146896 89.70651733 42.62340668 90.38178467 42.93449402 91.07751465 C45 95.76977681 45 95.76977681 45 98 C15.96 98 -13.08 98 -43 98 C-41.08083692 92.24251077 -39.28755059 87.15149538 -36.76953125 81.73046875 C-36.46202438 81.0640033 -36.15451752 80.39753784 -35.83769226 79.71087646 C-35.17693813 78.27948813 -34.51419313 76.84901737 -33.84960938 75.41940308 C-32.05169102 71.55020703 -30.27034079 67.67339472 -28.48828125 63.796875 C-28.11909576 62.99446884 -27.74991028 62.19206268 -27.36953735 61.36534119 C-23.33882399 52.58904538 -19.4120327 43.76719992 -15.5 34.9375 C-15.17955719 34.21452728 -14.85911438 33.49155457 -14.52896118 32.74667358 C-12.9855519 29.26377643 -11.44352595 25.78026984 -9.90234375 22.29638672 C-6.61142813 14.85988226 -3.30458733 7.43043626 0 0 Z " fill="#020202" transform="translate(212,1015)"/>
</svg>
